<?xml version="1.0" encoding="utf-8"?>
<!-- Generator: Adobe Illustrator 26.0.1, SVG Export Plug-In . SVG Version: 6.00 Build 0)  -->
<svg version="1.1" id="Layer_1" xmlns="http://www.w3.org/2000/svg" xmlns:xlink="http://www.w3.org/1999/xlink" x="0px" y="0px"
	 viewBox="0 0 500 500" style="enable-background:new 0 0 500 500;" xml:space="preserve">
<g>
	<g>
		<ellipse transform="matrix(0.9975 -0.0709 0.0709 0.9975 -14.3228 16.163)" cx="220.56" cy="209.88" rx="16.56" ry="16.56"/>
		<path d="M239.2,233.42h-37.29c-8.27,0-13.64,11.23-9.95,20.77L213,308.48c2.85,7.37,12.26,7.37,15.11,0l21.03-54.29
			C252.84,244.65,247.47,233.42,239.2,233.42z"/>
	</g>
	<g>
		<circle cx="287.14" cy="209.88" r="16.56"/>
		<path d="M305.78,233.42h-37.29c-8.27,0-13.64,11.23-9.95,20.77l21.03,54.29c2.85,7.37,12.26,7.37,15.11,0l21.03-54.29
			C319.42,244.65,314.05,233.42,305.78,233.42z"/>
	</g>
	<polygon points="342.61,338.93 163.7,338.93 163.7,166.3 176.25,166.3 176.25,326.38 330.05,326.38 330.05,166.3 342.61,166.3 	"/>
	<polygon points="199.35,180.52 190.48,171.64 221.31,140.81 250.64,170.13 241.76,179.01 221.31,158.56 	"/>
	<polygon points="286.38,179.55 257.06,150.22 265.93,141.35 286.38,161.8 308.34,139.84 317.22,148.72 	"/>
</g>
</svg>
