<?xml version="1.0" encoding="utf-8"?>
<!-- Generator: Adobe Illustrator 26.0.1, SVG Export Plug-In . SVG Version: 6.00 Build 0)  -->
<svg version="1.1" id="Layer_1" xmlns="http://www.w3.org/2000/svg" xmlns:xlink="http://www.w3.org/1999/xlink" x="0px" y="0px"
	 viewBox="0 0 500 500" style="enable-background:new 0 0 500 500;" xml:space="preserve">
<style type="text/css">
	.st0{display:none;}
	.st1{display:inline;}
</style>
<g>
	<g>
		
			<ellipse transform="matrix(0.9975 -7.088834e-02 7.088834e-02 0.9975 -10.9985 17.8465)" cx="245.9" cy="163.9" rx="29.2" ry="29.2"/>
		<path d="M204.7,347.4h82.5c14.6,0,24-18.1,17.5-33.5l-43.5-101.1c-2-5.8-7.4-9.6-13.4-9.6h-3.1c-6,0-11.3,3.8-13.4,9.5
			l-44.2,101.2C180.7,329.3,190.1,347.4,204.7,347.4z"/>
	</g>
	<g class="st0">
		<circle class="st1" cx="250" cy="161.7" r="28.6"/>
		<path class="st1" d="M282.2,202.3h-64.3c-14.3,0-23.5,19.4-17.2,35.8l36.3,93.7c4.9,12.7,21.2,12.7,26.1,0l36.3-93.7
			C305.7,221.7,296.4,202.3,282.2,202.3z"/>
	</g>
</g>
</svg>
