<?xml version="1.0" encoding="utf-8"?>
<!-- Generator: Adobe Illustrator 26.0.1, SVG Export Plug-In . SVG Version: 6.00 Build 0)  -->
<svg version="1.1" id="Layer_1" xmlns="http://www.w3.org/2000/svg" xmlns:xlink="http://www.w3.org/1999/xlink" x="0px" y="0px"
	 viewBox="0 0 500 500" style="enable-background:new 0 0 500 500;" xml:space="preserve">
<style type="text/css">
	.st0{display:none;}
	.st1{display:inline;}
</style>
<g>
	<g>
		<circle cx="250" cy="161.7" r="28.6"/>
		<path d="M282.2,202.3h-64.3c-14.3,0-23.5,19.4-17.2,35.8l36.3,93.7c4.9,12.7,21.2,12.7,26.1,0l36.3-93.7
			C305.7,221.7,296.4,202.3,282.2,202.3z"/>
	</g>
	<g class="st0">
		
			<ellipse transform="matrix(0.9975 -7.088834e-02 7.088834e-02 0.9975 -15.4616 19.6494)" class="st1" cx="269.1" cy="227.7" rx="8.4" ry="8.4"/>
		<path class="st1" d="M257.2,280.6H281c4.2,0,6.9-5.2,5.1-9.6l-12.5-29.1c-0.6-1.7-2.1-2.8-3.9-2.8h-0.9c-1.7,0-3.3,1.1-3.9,2.8
			l-12.7,29.2C250.3,275.4,253,280.6,257.2,280.6z"/>
	</g>
</g>
</svg>
